<svg xmlns="http://www.w3.org/2000/svg" width="800" height="450" viewBox="0 0 800 450">
  <defs>
    <linearGradient id="cfsBg" x1="0%" y1="0%" x2="100%" y2="100%">
      <stop offset="0%" style="stop-color:#0c1222"/>
      <stop offset="45%" style="stop-color:#132038"/>
      <stop offset="100%" style="stop-color:#0a1628"/>
    </linearGradient>
    <linearGradient id="cfsCta" x1="0%" y1="0%" x2="100%" y2="0%">
      <stop offset="0%" style="stop-color:#38bdf8;stop-opacity:0.9"/>
      <stop offset="100%" style="stop-color:#818cf8;stop-opacity:0.55"/>
    </linearGradient>
  </defs>
  <rect width="800" height="450" fill="url(#cfsBg)"/>
  <rect x="0" y="0" width="800" height="52" fill="rgba(8,12,24,0.92)"/>
  <rect x="36" y="18" width="120" height="16" rx="4" fill="rgba(148,163,184,0.35)"/>
  <rect x="620" y="20" width="72" height="12" rx="6" fill="rgba(56,189,248,0.2)"/>
  <rect x="704" y="20" width="60" height="12" rx="6" fill="rgba(129,140,248,0.25)"/>
  <rect x="0" y="52" width="800" height="240" fill="rgba(15,23,42,0.4)"/>
  <rect x="80" y="96" width="640" height="10" rx="5" fill="rgba(148,163,184,0.22)"/>
  <rect x="120" y="118" width="560" height="22" rx="6" fill="rgba(248,250,252,0.9)"/>
  <rect x="180" y="152" width="440" height="12" rx="4" fill="rgba(226,232,240,0.35)"/>
  <rect x="220" y="172" width="360" height="12" rx="4" fill="rgba(148,163,184,0.2)"/>
  <rect x="260" y="210" width="140" height="40" rx="20" fill="url(#cfsCta)"/>
  <rect x="420" y="210" width="120" height="40" rx="20" fill="rgba(255,255,255,0.06)" style="stroke:rgba(148,163,184,0.25);stroke-width:1"/>
  <rect x="0" y="292" width="800" height="158" fill="rgba(6,10,20,0.88)"/>
  <rect x="36" y="312" width="200" height="18" rx="4" fill="rgba(248,250,252,0.75)"/>
  <rect x="36" y="340" width="280" height="8" rx="4" fill="rgba(148,163,184,0.22)"/>
  <rect x="36" y="358" width="240" height="8" rx="4" fill="rgba(148,163,184,0.14)"/>
  <rect x="300" y="312" width="220" height="76" rx="14" fill="rgba(56,189,248,0.06)" style="stroke:rgba(56,189,248,0.2);stroke-width:1"/>
  <rect x="540" y="312" width="220" height="76" rx="14" fill="rgba(129,140,248,0.06)" style="stroke:rgba(129,140,248,0.2);stroke-width:1"/>
  <rect x="316" y="330" width="72" height="10" rx="3" fill="rgba(248,250,252,0.55)"/>
  <rect x="556" y="330" width="72" height="10" rx="3" fill="rgba(248,250,252,0.55)"/>
  <path d="M400 128 C388 128 378 136 378 148 C378 156 382 162 386 168 C390 176 394 184 398 184 C402 184 404 176 406 168 C410 162 414 156 414 148 C414 136 404 128 400 128Z" fill="rgba(56,189,248,0.12)" style="stroke:rgba(147,197,253,0.45);stroke-width:1.5"/>
</svg>
