<svg xmlns="http://www.w3.org/2000/svg" width="800" height="450" viewBox="0 0 800 450">
  <defs>
    <linearGradient id="bg" x1="0%" y1="0%" x2="100%" y2="100%">
      <stop offset="0%" style="stop-color:#050a14"/>
      <stop offset="50%" style="stop-color:#0a1a2e"/>
      <stop offset="100%" style="stop-color:#001428"/>
    </linearGradient>
    <linearGradient id="accent" x1="0%" y1="0%" x2="100%" y2="0%">
      <stop offset="0%" style="stop-color:#3b82f6;stop-opacity:0.8"/>
      <stop offset="100%" style="stop-color:#60a5fa;stop-opacity:0.4"/>
    </linearGradient>
  </defs>
  <rect width="800" height="450" fill="url(#bg)"/>
  <!-- Nav bar -->
  <rect x="0" y="0" width="800" height="56" fill="rgba(5,10,20,0.95)"/>
  <rect x="32" y="20" width="120" height="16" rx="4" fill="rgba(59,130,246,0.6)"/>
  <rect x="580" y="20" width="60" height="16" rx="8" fill="rgba(59,130,246,0.3)"/>
  <rect x="660" y="20" width="60" height="16" rx="8" fill="rgba(59,130,246,0.5)"/>
  <!-- Hero section -->
  <rect x="0" y="56" width="800" height="220" fill="rgba(10,26,46,0.5)"/>
  <rect x="200" y="100" width="400" height="8" rx="4" fill="rgba(255,255,255,0.15)"/>
  <rect x="160" y="124" width="480" height="32" rx="6" fill="rgba(255,255,255,0.85)"/>
  <rect x="220" y="172" width="360" height="12" rx="4" fill="rgba(255,255,255,0.3)"/>
  <rect x="260" y="196" width="280" height="12" rx="4" fill="rgba(255,255,255,0.2)"/>
  <rect x="290" y="232" width="100" height="36" rx="18" fill="url(#accent)"/>
  <rect x="410" y="232" width="100" height="36" rx="18" fill="rgba(255,255,255,0.08)" style="stroke:rgba(255,255,255,0.15);stroke-width:1"/>
  <!-- Services section -->
  <rect x="0" y="276" width="800" height="174" fill="rgba(4,8,20,0.8)"/>
  <rect x="32" y="296" width="160" height="20" rx="4" fill="rgba(255,255,255,0.7)"/>
  <rect x="32" y="328" width="220" height="8" rx="4" fill="rgba(255,255,255,0.2)"/>
  <!-- Cards -->
  <rect x="32" y="356" width="220" height="72" rx="12" fill="rgba(59,130,246,0.08)" style="stroke:rgba(59,130,246,0.2);stroke-width:1"/>
  <rect x="48" y="372" width="80" height="10" rx="3" fill="rgba(255,255,255,0.6)"/>
  <rect x="48" y="390" width="140" height="8" rx="3" fill="rgba(255,255,255,0.25)"/>
  <rect x="48" y="406" width="120" height="8" rx="3" fill="rgba(255,255,255,0.15)"/>
  <rect x="290" y="356" width="220" height="72" rx="12" fill="rgba(59,130,246,0.08)" style="stroke:rgba(59,130,246,0.2);stroke-width:1"/>
  <rect x="306" y="372" width="80" height="10" rx="3" fill="rgba(255,255,255,0.6)"/>
  <rect x="306" y="390" width="140" height="8" rx="3" fill="rgba(255,255,255,0.25)"/>
  <rect x="306" y="406" width="120" height="8" rx="3" fill="rgba(255,255,255,0.15)"/>
  <rect x="548" y="356" width="220" height="72" rx="12" fill="rgba(59,130,246,0.08)" style="stroke:rgba(59,130,246,0.2);stroke-width:1"/>
  <rect x="564" y="372" width="80" height="10" rx="3" fill="rgba(255,255,255,0.6)"/>
  <rect x="564" y="390" width="140" height="8" rx="3" fill="rgba(255,255,255,0.25)"/>
  <rect x="564" y="406" width="120" height="8" rx="3" fill="rgba(255,255,255,0.15)"/>
  <!-- Tooth icon -->
  <circle cx="400" cy="156" r="28" fill="rgba(59,130,246,0.15)" style="stroke:rgba(59,130,246,0.3);stroke-width:1"/>
  <text x="400" y="163" text-anchor="middle" font-size="22" fill="rgba(255,255,255,0.7)">🦷</text>
</svg>
