<svg xmlns="http://www.w3.org/2000/svg" width="800" height="450" viewBox="0 0 800 450">
  <defs>
    <linearGradient id="itaBg" x1="0%" y1="0%" x2="100%" y2="100%">
      <stop offset="0%" style="stop-color:#042f2e"/>
      <stop offset="50%" style="stop-color:#0c4a6e"/>
      <stop offset="100%" style="stop-color:#134e4a"/>
    </linearGradient>
    <linearGradient id="itaAccent" x1="0%" y1="0%" x2="100%" y2="0%">
      <stop offset="0%" style="stop-color:#2dd4bf;stop-opacity:0.85"/>
      <stop offset="100%" style="stop-color:#22d3ee;stop-opacity:0.45"/>
    </linearGradient>
  </defs>
  <rect width="800" height="450" fill="url(#itaBg)"/>
  <rect x="0" y="0" width="800" height="56" fill="rgba(4,24,24,0.95)"/>
  <rect x="32" y="20" width="100" height="16" rx="4" fill="rgba(45,212,191,0.55)"/>
  <rect x="580" y="20" width="60" height="16" rx="8" fill="rgba(34,211,238,0.25)"/>
  <rect x="660" y="20" width="60" height="16" rx="8" fill="rgba(45,212,191,0.45)"/>
  <rect x="0" y="56" width="800" height="220" fill="rgba(8,47,73,0.35)"/>
  <rect x="200" y="100" width="400" height="8" rx="4" fill="rgba(255,255,255,0.12)"/>
  <rect x="120" y="124" width="560" height="28" rx="6" fill="rgba(255,255,255,0.88)"/>
  <rect x="200" y="168" width="400" height="12" rx="4" fill="rgba(255,255,255,0.28)"/>
  <rect x="240" y="192" width="320" height="12" rx="4" fill="rgba(255,255,255,0.18)"/>
  <rect x="290" y="228" width="100" height="36" rx="18" fill="url(#itaAccent)"/>
  <rect x="410" y="228" width="100" height="36" rx="18" fill="rgba(255,255,255,0.08)" style="stroke:rgba(255,255,255,0.12);stroke-width:1"/>
  <rect x="0" y="276" width="800" height="174" fill="rgba(2,20,24,0.85)"/>
  <rect x="32" y="296" width="180" height="20" rx="4" fill="rgba(255,255,255,0.72)"/>
  <rect x="32" y="328" width="240" height="8" rx="4" fill="rgba(255,255,255,0.2)"/>
  <rect x="32" y="356" width="220" height="72" rx="12" fill="rgba(45,212,191,0.07)" style="stroke:rgba(45,212,191,0.22);stroke-width:1"/>
  <rect x="48" y="372" width="90" height="10" rx="3" fill="rgba(255,255,255,0.58)"/>
  <rect x="48" y="390" width="140" height="8" rx="3" fill="rgba(255,255,255,0.22)"/>
  <rect x="48" y="406" width="120" height="8" rx="3" fill="rgba(255,255,255,0.14)"/>
  <rect x="290" y="356" width="220" height="72" rx="12" fill="rgba(45,212,191,0.07)" style="stroke:rgba(45,212,191,0.22);stroke-width:1"/>
  <rect x="306" y="372" width="90" height="10" rx="3" fill="rgba(255,255,255,0.58)"/>
  <rect x="306" y="390" width="140" height="8" rx="3" fill="rgba(255,255,255,0.22)"/>
  <rect x="306" y="406" width="120" height="8" rx="3" fill="rgba(255,255,255,0.14)"/>
  <rect x="548" y="356" width="220" height="72" rx="12" fill="rgba(45,212,191,0.07)" style="stroke:rgba(45,212,191,0.22);stroke-width:1"/>
  <rect x="564" y="372" width="90" height="10" rx="3" fill="rgba(255,255,255,0.58)"/>
  <rect x="564" y="390" width="140" height="8" rx="3" fill="rgba(255,255,255,0.22)"/>
  <rect x="564" y="406" width="120" height="8" rx="3" fill="rgba(255,255,255,0.14)"/>
  <circle cx="400" cy="152" r="28" fill="rgba(45,212,191,0.12)" style="stroke:rgba(34,211,238,0.28);stroke-width:1"/>
  <text x="400" y="159" text-anchor="middle" font-size="22" fill="rgba(255,255,255,0.72)">>·</text>
</svg>
